PathFileType	4	(X/Y/Z)	c:/Users/goper/Files/vsCode/490R/osim_files/C17/C17_SSWS_05.trc
DataRate	CameraRate	NumFrames	NumMarkers	Units                	OrigDataRate	OrigDataStartFrame	OrigNumFrames
250.00	250.00	4	36	mm	250.0	1342	2146
                Frame#	Time	LPSIS			LASIS			LTH1			LTH2			LTH3			LTH4			LLFE			LMFE			LSH1			LSH2			LSH3			LSH4			LLMAL			LMMAL			LCAL			LMTP5			LTOE			LMTP1			RPSIS			RASIS			RTH1			RTH2			RTH3			RTH4			RLFE			RMFE			RSH1			RSH2			RSH3			RSH4			RLMAL			RMMAL			RCAL			RMTP1			RTOE			RMTP5		
		X1	Y1	Z1	X2	Y2	Z2	X3	Y3	Z3	X4	Y4	Z4	X5	Y5	Z5	X6	Y6	Z6	X7	Y7	Z7	X8	Y8	Z8	X9	Y9	Z9	X10	Y10	Z10	X11	Y11	Z11	X12	Y12	Z12	X13	Y13	Z13	X14	Y14	Z14	X15	Y15	Z15	X16	Y16	Z16	X17	Y17	Z17	X18	Y18	Z18	X19	Y19	Z19	X20	Y20	Z20	X21	Y21	Z21	X22	Y22	Z22	X23	Y23	Z23	X24	Y24	Z24	X25	Y25	Z25	X26	Y26	Z26	X27	Y27	Z27	X28	Y28	Z28	X29	Y29	Z29	X30	Y30	Z30	X31	Y31	Z31	X32	Y32	Z32	X33	Y33	Z33	X34	Y34	Z34	X35	Y35	Z35	X36	Y36	Z36

1342	5.36400	-853.53064	1059.73352	269.51068	-1041.22083	1001.23627	372.67816	-973.73071	667.35095	399.12830	-988.92322	625.01270	396.21338	-1031.04846	683.58563	409.43698	-1040.13464	639.48041	405.67688	-995.32922	481.07715	384.94855	-1016.63934	470.58081	258.68359	-787.59766	391.91971	374.68777	-753.50763	364.84628	370.19894	-817.54883	340.13321	377.44669	-780.07013	320.97617	373.33432	-646.65863	266.27551	349.15576	-664.65869	261.23483	262.10922	-590.00415	324.25562	301.64471	-624.69067	131.59573	357.24429	-672.18359	92.31825	294.65625	-649.28912	104.14747	244.75941	-860.60455	1059.65454	194.95660	-1044.35229	1031.19592	103.63751	-1059.36108	745.44263	48.19242	-1073.97009	701.59937	56.38405	-1116.70715	760.94421	58.95514	-1123.60059	713.29132	62.79329	-1156.88684	496.06244	90.17908	-1126.62805	511.86429	213.88223	-1085.19751	295.05447	89.69292	-1090.40759	251.38278	107.36111	-1146.70056	297.96558	104.15942	-1142.01697	252.01929	117.75658	-1086.17249	90.85703	152.56842	-1108.86865	111.62218	240.01331	-1014.55487	53.82566	194.76274	-1247.48096	50.15622	248.78702	-1265.07581	74.65344	205.41003	-1215.44519	42.23454	133.49455
1343	5.36800	-859.12872	1061.34277	268.79358	-1046.60876	1003.19843	372.35629	-983.29620	668.70355	398.98834	-998.89594	626.63391	396.05661	-1040.52441	685.48041	409.48843	-1049.80420	641.50940	405.83655	-1007.21582	483.08231	385.25830	-1028.37207	472.32928	259.10370	-799.67535	393.06259	374.66302	-765.72540	365.79056	370.21448	-830.26678	341.03821	377.60043	-792.56525	322.14471	373.45938	-659.43689	266.62524	349.14841	-677.52606	261.62204	262.12198	-601.25061	323.35263	301.87064	-640.57959	131.75397	358.07739	-688.66565	93.15913	295.49890	-665.24329	104.23296	245.74033	-866.44159	1061.26843	194.33543	-1050.42273	1033.02820	103.32335	-1063.40674	746.16809	47.78762	-1077.60510	702.20422	55.91559	-1120.71924	761.31403	58.76023	-1127.32910	713.59509	62.49406	-1158.39331	495.87137	89.83949	-1128.11646	511.62991	212.97711	-1086.04663	295.10040	89.43510	-1091.13770	251.37885	107.19693	-1147.56836	297.85168	103.81818	-1142.69873	251.85280	117.62659	-1086.30945	90.92009	152.65562	-1108.99463	111.68943	239.96951	-1014.77582	53.82398	194.84599	-1247.51184	50.12066	248.81818	-1265.07666	74.50916	205.39648	-1215.45752	42.18934	133.42787
1344	5.37200	-864.79333	1062.98096	268.11713	-1052.01343	1005.17969	372.05750	-992.14929	670.31091	400.20792	-1008.83289	628.29651	396.00220	-1049.82983	687.58954	409.70154	-1059.58887	643.56744	406.04282	-1018.82660	485.23416	385.59671	-1041.17273	473.95731	260.59485	-811.53693	393.97079	373.97772	-777.98627	366.56644	370.30347	-843.03552	341.87039	377.74155	-805.13513	323.11450	373.54922	-672.32092	266.69382	349.13971	-690.33978	261.77707	262.49622	-612.88898	321.93567	301.62500	-656.82983	131.63356	358.88843	-705.57214	93.87395	296.42770	-681.59009	104.08539	246.56746	-872.28265	1062.83582	193.75732	-1056.48645	1034.57007	103.02187	-1067.45801	746.87073	47.38783	-1081.28748	702.80591	55.51373	-1125.21448	761.25781	59.67233	-1131.16235	713.92767	62.24672	-1159.92139	495.68051	89.53513	-1129.73450	511.23941	212.61610	-1086.74622	295.12607	89.27869	-1091.79248	251.41176	107.10214	-1148.30225	297.66537	103.71375	-1143.32532	251.74193	117.51740	-1086.39453	90.87326	152.53262	-1109.09338	111.74577	239.93079	-1014.81812	53.91364	194.86359	-1247.53870	50.05001	248.85730	-1265.10754	74.38311	205.40089	-1215.47034	42.12899	133.35693
1345	5.37600	-870.43207	1064.61084	267.40488	-1057.43298	1007.17407	371.77921	-1001.60797	671.84747	400.02991	-1018.74683	630.07617	395.92856	-1059.01929	689.70984	409.91016	-1069.02722	645.97119	407.21042	-1030.49390	487.31177	385.86121	-1053.01611	475.89465	260.97382	-823.81805	394.84665	374.82413	-790.29413	367.17752	370.38037	-855.84949	342.62726	377.87131	-817.83240	323.89957	373.62674	-685.39093	266.51834	349.16168	-703.47839	261.57996	262.58661	-624.57208	319.97290	301.33212	-672.96027	131.33253	359.72275	-722.39087	93.91756	297.29785	-698.29053	103.73589	247.52151	-878.14215	1064.48047	193.16243	-1062.62939	1036.44006	102.75095	-1071.27002	747.68463	47.02855	-1084.83777	703.40558	55.14213	-1129.22571	761.54761	59.60094	-1134.80774	714.23383	61.93091	-1161.27051	495.46677	89.20550	-1131.28418	510.76816	212.17694	-1087.59253	295.20056	89.05173	-1092.30847	251.55725	106.94503	-1149.21326	297.52286	103.56696	-1143.95654	251.58858	117.47553	-1086.51721	90.91216	152.49745	-1109.22437	111.79263	239.88852	-1014.87091	53.99474	194.90253	-1247.53577	49.98481	248.88676	-1265.09973	74.25943	205.39703	-1215.49683	42.07993	133.27679
